<?xml version="1.0" encoding="iso-8859-1"?>
<!-- Uploaded to: SVG Repo, www.svgrepo.com, Generator: SVG Repo Mixer Tools -->

<svg version="1.1" xmlns="http://www.w3.org/2000/svg" style="display: none;">


	<symbol id="circle" viewBox="0 0 100 100">
        <path d="M50,84.4c-18.5,0-33.6-15-33.6-33.6c0-18.5,15-33.6,33.6-33.6c18.5,0,33.6,15,33.6,33.6C83.5,69.4,68.5,84.4,50,84.4z
		 M50,27.1c-13.1,0-23.8,10.7-23.8,23.8C26.2,64,36.9,74.6,50,74.6c13.1,0,23.8-10.7,23.8-23.8C73.8,37.8,63.1,27.1,50,27.1z
		 M66.8,53.3L43,67.3c-0.4,0.3-0.9,0.4-1.4,0.4s-1-0.1-1.4-0.3c-0.9-0.5-1.4-1.4-1.4-2.4v-28c0-1,0.5-1.9,1.4-2.4
		c0.9-0.5,2-0.5,2.8,0l23.8,14c0.9,0.5,1.4,1.4,1.4,2.4C68.2,51.9,67.6,52.8,66.8,53.3z"/>
    </symbol>

	<symbol id="down-arrow" viewBox="0 0 100 100">
		<path id="XMLID_225_" d="M325.607,79.393c-5.857-5.857-15.355-5.858-21.213,0.001l-139.39,139.393L25.607,79.393
			c-5.857-5.857-15.355-5.858-21.213,0.001c-5.858,5.858-5.858,15.355,0,21.213l150.004,150c2.813,2.813,6.628,4.393,10.606,4.393
			s7.794-1.581,10.606-4.394l149.996-150C331.465,94.749,331.465,85.251,325.607,79.393z"/>
	</symbol>

	<symbol id="twitter-square" viewBox="0 0 100 100">
        <path d="M83.5,71.8c0,6.9-5.6,12.6-12.6,12.6H29.1c-6.9,0-12.6-5.6-12.6-12.6V29.9c0-6.9,5.6-12.6,12.6-12.6h41.9
		c6.9,0,12.6,5.6,12.6,12.6V71.8z M67.1,39.9c1.9-1.1,3.4-3,4.1-5.1c-1.8,1-3.8,1.8-5.8,2.2c-1.7-1.8-4.1-2.9-6.7-2.9
		c-5.1,0-9.2,4.1-9.2,9.2c0,0.7,0,1.4,0.2,2.1c-7.6-0.4-14.4-4-18.9-9.6c-0.8,1.4-1.3,3-1.3,4.6c0,3.2,1.5,6,4,7.6
		c-1.5,0-3-0.5-4.4-1.1c0,0,0,0,0,0.1c0,4.5,3.4,8.2,7.5,9c-0.8,0.2-1.4,0.3-2.2,0.3c-0.6,0-1.1-0.1-1.7-0.2
		c1.2,3.6,4.5,6.3,8.6,6.4c-3.1,2.4-7.1,3.9-11.4,3.9c-0.7,0-1.5,0-2.2-0.1c4.1,2.6,8.9,4.1,14,4.1c16.8,0,26.1-14,26.1-26.1
		c0-0.4,0-0.8,0-1.2c1.8-1.3,3.4-2.9,4.6-4.8C70.7,39.1,68.9,39.6,67.1,39.9z"/>
    </symbol>
</svg>